<svg xmlns="http://www.w3.org/2000/svg" xmlns:xlink="http://www.w3.org/1999/xlink" version="1.1" class="marks" width="1328" height="800" viewBox="0 0 664 400"><rect width="664" height="400" fill="white"/><g fill="none" stroke-miterlimit="10" transform="translate(45,10)"><g class="mark-group role-frame root" role="graphics-object" aria-roledescription="group mark container"><g transform="translate(0,0)"><path class="background" aria-hidden="true" d="M0.5,0.5h613v353h-613Z" stroke="#ddd"/><g><g class="mark-group role-axis" aria-hidden="true"><g transform="translate(0.5,353.5)"><path class="background" aria-hidden="true" d="M0,0h0v0h0Z" pointer-events="none"/><g><g class="mark-rule role-axis-grid" pointer-events="none"><line transform="translate(0,-353)" x2="0" y2="353" stroke="#ddd" stroke-width="1" opacity="1"/><line transform="translate(52,-353)" x2="0" y2="353" stroke="#ddd" stroke-width="1" opacity="1"/><line transform="translate(100,-353)" x2="0" y2="353" stroke="#ddd" stroke-width="1" opacity="1"/><line transform="translate(152,-353)" x2="0" y2="353" stroke="#ddd" stroke-width="1" opacity="1"/><line transform="translate(203,-353)" x2="0" y2="353" stroke="#ddd" stroke-width="1" opacity="1"/><line transform="translate(255,-353)" x2="0" y2="353" stroke="#ddd" stroke-width="1" opacity="1"/><line transform="translate(305,-353)" x2="0" y2="353" stroke="#ddd" stroke-width="1" opacity="1"/><line transform="translate(357,-353)" x2="0" y2="353" stroke="#ddd" stroke-width="1" opacity="1"/><line transform="translate(409,-353)" x2="0" y2="353" stroke="#ddd" stroke-width="1" opacity="1"/><line transform="translate(459,-353)" x2="0" y2="353" stroke="#ddd" stroke-width="1" opacity="1"/><line transform="translate(511,-353)" x2="0" y2="353" stroke="#ddd" stroke-width="1" opacity="1"/><line transform="translate(561,-353)" x2="0" y2="353" stroke="#ddd" stroke-width="1" opacity="1"/><line transform="translate(613,-353)" x2="0" y2="353" stroke="#ddd" stroke-width="1" opacity="1"/></g></g><path class="foreground" aria-hidden="true" d="" pointer-events="none" display="none"/></g></g><g class="mark-group role-axis" aria-hidden="true"><g transform="translate(0.5,0.5)"><path class="background" aria-hidden="true" d="M0,0h0v0h0Z" pointer-events="none"/><g><g class="mark-rule role-axis-grid" pointer-events="none"><line transform="translate(0,353)" x2="613" y2="0" stroke="#ddd" stroke-width="1" opacity="1"/><line transform="translate(0,314)" x2="613" y2="0" stroke="#ddd" stroke-width="1" opacity="1"/><line transform="translate(0,275)" x2="613" y2="0" stroke="#ddd" stroke-width="1" opacity="1"/><line transform="translate(0,235)" x2="613" y2="0" stroke="#ddd" stroke-width="1" opacity="1"/><line transform="translate(0,196)" x2="613" y2="0" stroke="#ddd" stroke-width="1" opacity="1"/><line transform="translate(0,157)" x2="613" y2="0" stroke="#ddd" stroke-width="1" opacity="1"/><line transform="translate(0,118)" x2="613" y2="0" stroke="#ddd" stroke-width="1" opacity="1"/><line transform="translate(0,78)" x2="613" y2="0" stroke="#ddd" stroke-width="1" opacity="1"/><line transform="translate(0,39)" x2="613" y2="0" stroke="#ddd" stroke-width="1" opacity="1"/><line transform="translate(0,0)" x2="613" y2="0" stroke="#ddd" stroke-width="1" opacity="1"/></g></g><path class="foreground" aria-hidden="true" d="" pointer-events="none" display="none"/></g></g><g class="mark-group role-axis" role="graphics-symbol" aria-roledescription="axis" aria-label="X-axis titled 'Mes' for a time scale with values from January to January"><g transform="translate(0.5,353.5)"><path class="background" aria-hidden="true" d="M0,0h0v0h0Z" pointer-events="none"/><g><g class="mark-rule role-axis-tick" pointer-events="none"><line transform="translate(0,0)" x2="0" y2="5" stroke="#888" stroke-width="1" opacity="1"/><line transform="translate(52,0)" x2="0" y2="5" stroke="#888" stroke-width="1" opacity="1"/><line transform="translate(100,0)" x2="0" y2="5" stroke="#888" stroke-width="1" opacity="1"/><line transform="translate(152,0)" x2="0" y2="5" stroke="#888" stroke-width="1" opacity="1"/><line transform="translate(203,0)" x2="0" y2="5" stroke="#888" stroke-width="1" opacity="1"/><line transform="translate(255,0)" x2="0" y2="5" stroke="#888" stroke-width="1" opacity="1"/><line transform="translate(305,0)" x2="0" y2="5" stroke="#888" stroke-width="1" opacity="1"/><line transform="translate(357,0)" x2="0" y2="5" stroke="#888" stroke-width="1" opacity="1"/><line transform="translate(409,0)" x2="0" y2="5" stroke="#888" stroke-width="1" opacity="1"/><line transform="translate(459,0)" x2="0" y2="5" stroke="#888" stroke-width="1" opacity="1"/><line transform="translate(511,0)" x2="0" y2="5" stroke="#888" stroke-width="1" opacity="1"/><line transform="translate(561,0)" x2="0" y2="5" stroke="#888" stroke-width="1" opacity="1"/><line transform="translate(613,0)" x2="0" y2="5" stroke="#888" stroke-width="1" opacity="1"/></g><g class="mark-text role-axis-label" pointer-events="none"><text text-anchor="start" transform="translate(0,15)" font-family="sans-serif" font-size="10px" fill="#000" opacity="1">Jan</text><text text-anchor="middle" transform="translate(51.9207650273224,15)" font-family="sans-serif" font-size="10px" fill="#000" opacity="1">Feb</text><text text-anchor="middle" transform="translate(100.49180327868852,15)" font-family="sans-serif" font-size="10px" fill="#000" opacity="1">Mar</text><text text-anchor="middle" transform="translate(152.41256830601094,15)" font-family="sans-serif" font-size="10px" fill="#000" opacity="1">Apr</text><text text-anchor="middle" transform="translate(202.65846994535517,15)" font-family="sans-serif" font-size="10px" fill="#000" opacity="1">May</text><text text-anchor="middle" transform="translate(254.5792349726776,15)" font-family="sans-serif" font-size="10px" fill="#000" opacity="1">Jun</text><text text-anchor="middle" transform="translate(304.8251366120219,15)" font-family="sans-serif" font-size="10px" fill="#000" opacity="1">Jul</text><text text-anchor="middle" transform="translate(356.74590163934425,15)" font-family="sans-serif" font-size="10px" fill="#000" opacity="1">Aug</text><text text-anchor="middle" transform="translate(408.66666666666663,15)" font-family="sans-serif" font-size="10px" fill="#000" opacity="1">Sep</text><text text-anchor="middle" transform="translate(458.91256830601094,15)" font-family="sans-serif" font-size="10px" fill="#000" opacity="1">Oct</text><text text-anchor="middle" transform="translate(510.83333333333337,15)" font-family="sans-serif" font-size="10px" fill="#000" opacity="1">Nov</text><text text-anchor="middle" transform="translate(561.0792349726776,15)" font-family="sans-serif" font-size="10px" fill="#000" opacity="1">Dec</text><text text-anchor="end" transform="translate(613,15)" font-family="sans-serif" font-size="10px" fill="#000" opacity="1">Jan</text></g><g class="mark-rule role-axis-domain" pointer-events="none"><line transform="translate(0,0)" x2="613" y2="0" stroke="#888" stroke-width="1" opacity="1"/></g><g class="mark-text role-axis-title" pointer-events="none"><text text-anchor="middle" transform="translate(306.5,30)" font-family="sans-serif" font-size="11px" font-weight="bold" fill="#000" opacity="1">Mes</text></g></g><path class="foreground" aria-hidden="true" d="" pointer-events="none" display="none"/></g></g><g class="mark-group role-axis" role="graphics-symbol" aria-roledescription="axis" aria-label="Y-axis titled 'Cantidad de matrimonios' for a linear scale with values from 0 to 450"><g transform="translate(0.5,0.5)"><path class="background" aria-hidden="true" d="M0,0h0v0h0Z" pointer-events="none"/><g><g class="mark-rule role-axis-tick" pointer-events="none"><line transform="translate(0,353)" x2="-5" y2="0" stroke="#888" stroke-width="1" opacity="1"/><line transform="translate(0,314)" x2="-5" y2="0" stroke="#888" stroke-width="1" opacity="1"/><line transform="translate(0,275)" x2="-5" y2="0" stroke="#888" stroke-width="1" opacity="1"/><line transform="translate(0,235)" x2="-5" y2="0" stroke="#888" stroke-width="1" opacity="1"/><line transform="translate(0,196)" x2="-5" y2="0" stroke="#888" stroke-width="1" opacity="1"/><line transform="translate(0,157)" x2="-5" y2="0" stroke="#888" stroke-width="1" opacity="1"/><line transform="translate(0,118)" x2="-5" y2="0" stroke="#888" stroke-width="1" opacity="1"/><line transform="translate(0,78)" x2="-5" y2="0" stroke="#888" stroke-width="1" opacity="1"/><line transform="translate(0,39)" x2="-5" y2="0" stroke="#888" stroke-width="1" opacity="1"/><line transform="translate(0,0)" x2="-5" y2="0" stroke="#888" stroke-width="1" opacity="1"/></g><g class="mark-text role-axis-label" pointer-events="none"><text text-anchor="end" transform="translate(-7,356)" font-family="sans-serif" font-size="10px" fill="#000" opacity="1">0</text><text text-anchor="end" transform="translate(-7,316.77777777777777)" font-family="sans-serif" font-size="10px" fill="#000" opacity="1">50</text><text text-anchor="end" transform="translate(-7,277.55555555555554)" font-family="sans-serif" font-size="10px" fill="#000" opacity="1">100</text><text text-anchor="end" transform="translate(-7,238.33333333333337)" font-family="sans-serif" font-size="10px" fill="#000" opacity="1">150</text><text text-anchor="end" transform="translate(-7,199.11111111111111)" font-family="sans-serif" font-size="10px" fill="#000" opacity="1">200</text><text text-anchor="end" transform="translate(-7,159.88888888888889)" font-family="sans-serif" font-size="10px" fill="#000" opacity="1">250</text><text text-anchor="end" transform="translate(-7,120.66666666666669)" font-family="sans-serif" font-size="10px" fill="#000" opacity="1">300</text><text text-anchor="end" transform="translate(-7,81.44444444444444)" font-family="sans-serif" font-size="10px" fill="#000" opacity="1">350</text><text text-anchor="end" transform="translate(-7,42.22222222222224)" font-family="sans-serif" font-size="10px" fill="#000" opacity="1">400</text><text text-anchor="end" transform="translate(-7,3)" font-family="sans-serif" font-size="10px" fill="#000" opacity="1">450</text></g><g class="mark-rule role-axis-domain" pointer-events="none"><line transform="translate(0,353)" x2="0" y2="-353" stroke="#888" stroke-width="1" opacity="1"/></g><g class="mark-text role-axis-title" pointer-events="none"><text text-anchor="middle" transform="translate(-29,176.5) rotate(-90) translate(0,-2)" font-family="sans-serif" font-size="11px" font-weight="bold" fill="#000" opacity="1">Cantidad de matrimonios</text></g></g><path class="foreground" aria-hidden="true" d="" pointer-events="none" display="none"/></g></g><g class="mark-rect role-mark marks" role="graphics-object" aria-roledescription="rect mark container"><path aria-label="fecha_matrimonio (month): Feb; Count of Records: 259" role="graphics-symbol" aria-roledescription="bar" d="M52.9207650273224,149.82888888888888h47.57103825136612v203.17111111111112h-47.57103825136612Z" fill="#4c78a8"/><path aria-label="fecha_matrimonio (month): Aug; Count of Records: 231" role="graphics-symbol" aria-roledescription="bar" d="M357.74590163934425,171.79333333333335h50.920765027322375v181.20666666666665h-50.920765027322375Z" fill="#4c78a8"/><path aria-label="fecha_matrimonio (month): Apr; Count of Records: 323" role="graphics-symbol" aria-roledescription="bar" d="M153.41256830601094,99.62444444444446h49.245901639344225v253.37555555555554h-49.245901639344225Z" fill="#4c78a8"/><path aria-label="fecha_matrimonio (month): Jul; Count of Records: 246" role="graphics-symbol" aria-roledescription="bar" d="M305.8251366120219,160.02666666666667h50.920765027322375v192.97333333333333h-50.920765027322375Z" fill="#4c78a8"/><path aria-label="fecha_matrimonio (month): Mar; Count of Records: 424" role="graphics-symbol" aria-roledescription="bar" d="M101.49180327868852,20.395555555555568h50.92076502732242v332.6044444444444h-50.92076502732242Z" fill="#4c78a8"/><path aria-label="fecha_matrimonio (month): Nov; Count of Records: 445" role="graphics-symbol" aria-roledescription="bar" d="M511.83333333333337,3.9222222222222083h49.2459016393442v349.0777777777778h-49.2459016393442Z" fill="#4c78a8"/><path aria-label="fecha_matrimonio (month): Jan; Count of Records: 262" role="graphics-symbol" aria-roledescription="bar" d="M1,147.47555555555556h50.9207650273224v205.52444444444444h-50.9207650273224Z" fill="#4c78a8"/><path aria-label="fecha_matrimonio (month): May; Count of Records: 236" role="graphics-symbol" aria-roledescription="bar" d="M203.65846994535517,167.8711111111111h50.92076502732243v185.1288888888889h-50.92076502732243Z" fill="#4c78a8"/><path aria-label="fecha_matrimonio (month): Oct; Count of Records: 317" role="graphics-symbol" aria-roledescription="bar" d="M459.91256830601094,104.33111111111111h50.92076502732243v248.6688888888889h-50.92076502732243Z" fill="#4c78a8"/><path aria-label="fecha_matrimonio (month): Sep; Count of Records: 311" role="graphics-symbol" aria-roledescription="bar" d="M409.66666666666663,109.03777777777778h49.24590163934431v243.96222222222224h-49.24590163934431Z" fill="#4c78a8"/><path aria-label="fecha_matrimonio (month): Dec; Count of Records: 447" role="graphics-symbol" aria-roledescription="bar" d="M562.0792349726776,2.3533333333333486h50.92076502732243v350.64666666666665h-50.92076502732243Z" fill="#4c78a8"/><path aria-label="fecha_matrimonio (month): Jun; Count of Records: 187" role="graphics-symbol" aria-roledescription="bar" d="M255.5792349726776,206.30888888888887h49.24590163934428v146.69111111111113h-49.24590163934428Z" fill="#4c78a8"/></g></g><path class="foreground" aria-hidden="true" d="" display="none"/></g></g></g></svg>