<svg xmlns="http://www.w3.org/2000/svg" xmlns:xlink="http://www.w3.org/1999/xlink" version="1.1" class="marks" width="1328" height="800" viewBox="0 0 664 400"><rect width="664" height="400" fill="white"/><g fill="none" stroke-miterlimit="10" transform="translate(45,10)"><g class="mark-group role-frame root" role="graphics-object" aria-roledescription="group mark container"><g transform="translate(0,0)"><path class="background" aria-hidden="true" d="M0.5,0.5h613v353h-613Z" stroke="#ddd"/><g><g class="mark-group role-axis" aria-hidden="true"><g transform="translate(0.5,353.5)"><path class="background" aria-hidden="true" d="M0,0h0v0h0Z" pointer-events="none"/><g><g class="mark-rule role-axis-grid" pointer-events="none"><line transform="translate(0,-353)" x2="0" y2="353" stroke="#ddd" stroke-width="1" opacity="1"/><line transform="translate(78,-353)" x2="0" y2="353" stroke="#ddd" stroke-width="1" opacity="1"/><line transform="translate(151,-353)" x2="0" y2="353" stroke="#ddd" stroke-width="1" opacity="1"/><line transform="translate(229,-353)" x2="0" y2="353" stroke="#ddd" stroke-width="1" opacity="1"/><line transform="translate(304,-353)" x2="0" y2="353" stroke="#ddd" stroke-width="1" opacity="1"/><line transform="translate(382,-353)" x2="0" y2="353" stroke="#ddd" stroke-width="1" opacity="1"/><line transform="translate(457,-353)" x2="0" y2="353" stroke="#ddd" stroke-width="1" opacity="1"/><line transform="translate(535,-353)" x2="0" y2="353" stroke="#ddd" stroke-width="1" opacity="1"/><line transform="translate(613,-353)" x2="0" y2="353" stroke="#ddd" stroke-width="1" opacity="1"/></g></g><path class="foreground" aria-hidden="true" d="" pointer-events="none" display="none"/></g></g><g class="mark-group role-axis" aria-hidden="true"><g transform="translate(0.5,0.5)"><path class="background" aria-hidden="true" d="M0,0h0v0h0Z" pointer-events="none"/><g><g class="mark-rule role-axis-grid" pointer-events="none"><line transform="translate(0,353)" x2="613" y2="0" stroke="#ddd" stroke-width="1" opacity="1"/><line transform="translate(0,324)" x2="613" y2="0" stroke="#ddd" stroke-width="1" opacity="1"/><line transform="translate(0,294)" x2="613" y2="0" stroke="#ddd" stroke-width="1" opacity="1"/><line transform="translate(0,265)" x2="613" y2="0" stroke="#ddd" stroke-width="1" opacity="1"/><line transform="translate(0,235)" x2="613" y2="0" stroke="#ddd" stroke-width="1" opacity="1"/><line transform="translate(0,206)" x2="613" y2="0" stroke="#ddd" stroke-width="1" opacity="1"/><line transform="translate(0,177)" x2="613" y2="0" stroke="#ddd" stroke-width="1" opacity="1"/><line transform="translate(0,147)" x2="613" y2="0" stroke="#ddd" stroke-width="1" opacity="1"/><line transform="translate(0,118)" x2="613" y2="0" stroke="#ddd" stroke-width="1" opacity="1"/><line transform="translate(0,88)" x2="613" y2="0" stroke="#ddd" stroke-width="1" opacity="1"/><line transform="translate(0,59)" x2="613" y2="0" stroke="#ddd" stroke-width="1" opacity="1"/><line transform="translate(0,29)" x2="613" y2="0" stroke="#ddd" stroke-width="1" opacity="1"/><line transform="translate(0,0)" x2="613" y2="0" stroke="#ddd" stroke-width="1" opacity="1"/></g></g><path class="foreground" aria-hidden="true" d="" pointer-events="none" display="none"/></g></g><g class="mark-group role-axis" role="graphics-symbol" aria-roledescription="axis" aria-label="X-axis titled 'Mes' for a time scale with values from January to September"><g transform="translate(0.5,353.5)"><path class="background" aria-hidden="true" d="M0,0h0v0h0Z" pointer-events="none"/><g><g class="mark-rule role-axis-tick" pointer-events="none"><line transform="translate(0,0)" x2="0" y2="5" stroke="#888" stroke-width="1" opacity="1"/><line transform="translate(78,0)" x2="0" y2="5" stroke="#888" stroke-width="1" opacity="1"/><line transform="translate(151,0)" x2="0" y2="5" stroke="#888" stroke-width="1" opacity="1"/><line transform="translate(229,0)" x2="0" y2="5" stroke="#888" stroke-width="1" opacity="1"/><line transform="translate(304,0)" x2="0" y2="5" stroke="#888" stroke-width="1" opacity="1"/><line transform="translate(382,0)" x2="0" y2="5" stroke="#888" stroke-width="1" opacity="1"/><line transform="translate(457,0)" x2="0" y2="5" stroke="#888" stroke-width="1" opacity="1"/><line transform="translate(535,0)" x2="0" y2="5" stroke="#888" stroke-width="1" opacity="1"/><line transform="translate(613,0)" x2="0" y2="5" stroke="#888" stroke-width="1" opacity="1"/></g><g class="mark-text role-axis-label" pointer-events="none"><text text-anchor="start" transform="translate(0,15)" font-family="sans-serif" font-size="10px" fill="#000" opacity="1">Jan</text><text text-anchor="middle" transform="translate(77.8811475409836,15)" font-family="sans-serif" font-size="10px" fill="#000" opacity="1">Feb</text><text text-anchor="middle" transform="translate(150.7377049180328,15)" font-family="sans-serif" font-size="10px" fill="#000" opacity="1">Mar</text><text text-anchor="middle" transform="translate(228.6188524590164,15)" font-family="sans-serif" font-size="10px" fill="#000" opacity="1">Apr</text><text text-anchor="middle" transform="translate(303.98770491803276,15)" font-family="sans-serif" font-size="10px" fill="#000" opacity="1">May</text><text text-anchor="middle" transform="translate(381.8688524590164,15)" font-family="sans-serif" font-size="10px" fill="#000" opacity="1">Jun</text><text text-anchor="middle" transform="translate(457.2377049180328,15)" font-family="sans-serif" font-size="10px" fill="#000" opacity="1">Jul</text><text text-anchor="middle" transform="translate(535.1188524590164,15)" font-family="sans-serif" font-size="10px" fill="#000" opacity="1">Aug</text><text text-anchor="end" transform="translate(613,15)" font-family="sans-serif" font-size="10px" fill="#000" opacity="1">Sep</text></g><g class="mark-rule role-axis-domain" pointer-events="none"><line transform="translate(0,0)" x2="613" y2="0" stroke="#888" stroke-width="1" opacity="1"/></g><g class="mark-text role-axis-title" pointer-events="none"><text text-anchor="middle" transform="translate(306.5,30)" font-family="sans-serif" font-size="11px" font-weight="bold" fill="#000" opacity="1">Mes</text></g></g><path class="foreground" aria-hidden="true" d="" pointer-events="none" display="none"/></g></g><g class="mark-group role-axis" role="graphics-symbol" aria-roledescription="axis" aria-label="Y-axis titled 'Cantidad' for a linear scale with values from 0 to 600"><g transform="translate(0.5,0.5)"><path class="background" aria-hidden="true" d="M0,0h0v0h0Z" pointer-events="none"/><g><g class="mark-rule role-axis-tick" pointer-events="none"><line transform="translate(0,353)" x2="-5" y2="0" stroke="#888" stroke-width="1" opacity="1"/><line transform="translate(0,324)" x2="-5" y2="0" stroke="#888" stroke-width="1" opacity="1"/><line transform="translate(0,294)" x2="-5" y2="0" stroke="#888" stroke-width="1" opacity="1"/><line transform="translate(0,265)" x2="-5" y2="0" stroke="#888" stroke-width="1" opacity="1"/><line transform="translate(0,235)" x2="-5" y2="0" stroke="#888" stroke-width="1" opacity="1"/><line transform="translate(0,206)" x2="-5" y2="0" stroke="#888" stroke-width="1" opacity="1"/><line transform="translate(0,177)" x2="-5" y2="0" stroke="#888" stroke-width="1" opacity="1"/><line transform="translate(0,147)" x2="-5" y2="0" stroke="#888" stroke-width="1" opacity="1"/><line transform="translate(0,118)" x2="-5" y2="0" stroke="#888" stroke-width="1" opacity="1"/><line transform="translate(0,88)" x2="-5" y2="0" stroke="#888" stroke-width="1" opacity="1"/><line transform="translate(0,59)" x2="-5" y2="0" stroke="#888" stroke-width="1" opacity="1"/><line transform="translate(0,29)" x2="-5" y2="0" stroke="#888" stroke-width="1" opacity="1"/><line transform="translate(0,0)" x2="-5" y2="0" stroke="#888" stroke-width="1" opacity="1"/></g><g class="mark-text role-axis-label" pointer-events="none"><text text-anchor="end" transform="translate(-7,356)" font-family="sans-serif" font-size="10px" fill="#000" opacity="1">0</text><text text-anchor="end" transform="translate(-7,326.5833333333333)" font-family="sans-serif" font-size="10px" fill="#000" opacity="1">50</text><text text-anchor="end" transform="translate(-7,297.1666666666667)" font-family="sans-serif" font-size="10px" fill="#000" opacity="1">100</text><text text-anchor="end" transform="translate(-7,267.75)" font-family="sans-serif" font-size="10px" fill="#000" opacity="1">150</text><text text-anchor="end" transform="translate(-7,238.33333333333337)" font-family="sans-serif" font-size="10px" fill="#000" opacity="1">200</text><text text-anchor="end" transform="translate(-7,208.91666666666663)" font-family="sans-serif" font-size="10px" fill="#000" opacity="1">250</text><text text-anchor="end" transform="translate(-7,179.5)" font-family="sans-serif" font-size="10px" fill="#000" opacity="1">300</text><text text-anchor="end" transform="translate(-7,150.08333333333331)" font-family="sans-serif" font-size="10px" fill="#000" opacity="1">350</text><text text-anchor="end" transform="translate(-7,120.66666666666669)" font-family="sans-serif" font-size="10px" fill="#000" opacity="1">400</text><text text-anchor="end" transform="translate(-7,91.25)" font-family="sans-serif" font-size="10px" fill="#000" opacity="1">450</text><text text-anchor="end" transform="translate(-7,61.83333333333332)" font-family="sans-serif" font-size="10px" fill="#000" opacity="1">500</text><text text-anchor="end" transform="translate(-7,32.41666666666668)" font-family="sans-serif" font-size="10px" fill="#000" opacity="1">550</text><text text-anchor="end" transform="translate(-7,3)" font-family="sans-serif" font-size="10px" fill="#000" opacity="1">600</text></g><g class="mark-rule role-axis-domain" pointer-events="none"><line transform="translate(0,353)" x2="0" y2="-353" stroke="#888" stroke-width="1" opacity="1"/></g><g class="mark-text role-axis-title" pointer-events="none"><text text-anchor="middle" transform="translate(-29,176.5) rotate(-90) translate(0,-2)" font-family="sans-serif" font-size="11px" font-weight="bold" fill="#000" opacity="1">Cantidad</text></g></g><path class="foreground" aria-hidden="true" d="" pointer-events="none" display="none"/></g></g><g class="mark-rect role-mark marks" role="graphics-object" aria-roledescription="rect mark container"><path aria-label="fecha_creacion_divorcio (month): Jan; Count of Records: 119" role="graphics-symbol" aria-roledescription="bar" d="M1,282.98833333333334h76.8811475409836v70.01166666666666h-76.8811475409836Z" fill="#4c78a8"/><path aria-label="fecha_creacion_divorcio (month): Feb; Count of Records: 436" role="graphics-symbol" aria-roledescription="bar" d="M78.8811475409836,96.48666666666666h71.85655737704919v256.5133333333333h-71.85655737704919Z" fill="#4c78a8"/><path aria-label="fecha_creacion_divorcio (month): Mar; Count of Records: 498" role="graphics-symbol" aria-roledescription="bar" d="M151.7377049180328,60.01000000000001h76.88114754098362v292.99h-76.88114754098362Z" fill="#4c78a8"/><path aria-label="fecha_creacion_divorcio (month): Apr; Count of Records: 538" role="graphics-symbol" aria-roledescription="bar" d="M229.6188524590164,36.47666666666669h74.36885245901635v316.5233333333333h-74.36885245901635Z" fill="#4c78a8"/><path aria-label="fecha_creacion_divorcio (month): May; Count of Records: 556" role="graphics-symbol" aria-roledescription="bar" d="M304.98770491803276,25.886666666666677h76.88114754098365v327.11333333333334h-76.88114754098365Z" fill="#4c78a8"/><path aria-label="fecha_creacion_divorcio (month): Jun; Count of Records: 552" role="graphics-symbol" aria-roledescription="bar" d="M382.8688524590164,28.239999999999984h74.36885245901641v324.76h-74.36885245901641Z" fill="#4c78a8"/><path aria-label="fecha_creacion_divorcio (month): Jul; Count of Records: 491" role="graphics-symbol" aria-roledescription="bar" d="M458.2377049180328,64.12833333333333h76.88114754098353v288.87166666666667h-76.88114754098353Z" fill="#4c78a8"/><path aria-label="fecha_creacion_divorcio (month): Aug; Count of Records: 498" role="graphics-symbol" aria-roledescription="bar" d="M536.1188524590164,60.01000000000001h76.88114754098365v292.99h-76.88114754098365Z" fill="#4c78a8"/></g></g><path class="foreground" aria-hidden="true" d="" display="none"/></g></g></g></svg>